<svg id="Capa_1" enable-background="new 0 0 500.756 500.756" height="512" viewBox="0 0 500.756 500.756" width="512" xmlns="http://www.w3.org/2000/svg"><g><path d="m495.378 255.756c0 135.31-109.69 245-245 245s-245-109.69-245-245 109.69-245 245-245 245 109.69 245 245z" fill="#0a3575"/><path d="m244.618 469.756c-68.815.4-124.8-55.585-125.24-124.4v-15.6c.44-12.822-4.553-24.876-13.619-33.941l-48.033-48.033c-3.626-3.626-5.623-8.448-5.623-13.577s1.997-9.951 5.623-13.577l5.398-5.397c12.692-12.692 29.568-19.682 47.517-19.682 6.375 0 18.736 2.67 18.736 2.67v-92.85c0-26.482 21.544-48.026 48.026-48.026 8.936 0 17.56 2.542 24.974 7.062v-6.274c0-25.609 19.758-47.31 45.329-48.702 27.674-1.507 50.671 20.575 50.671 47.927v5.856c7.684-4.199 16.534-6.272 25.742-5.768 25.543 1.399 45.258 23.111 45.258 48.692v92.665s13.662-3.252 20.737-3.252c17.95 0 34.825 6.99 47.517 19.682l5.397 5.397c3.627 3.626 5.624 8.448 5.624 13.577s-1.997 9.951-5.623 13.577l-48.032 48.033c-9.067 9.066-14.059 21.119-13.619 33.941v15.6c-.44 68.815-125.24 124.4-125.24 124.4z" fill="#70bdc8"/><path d="m223.878 270.258c-6.351 0-11.5-5.149-11.5-11.5v-201.249c0-17.313 11.477-31.944 27.237-36.702-2.708 5.255-4.237 11.217-4.237 17.535v220.417c0 6.351-5.149 11.499-11.5 11.499zm72.039-28.779c5.995-.526 10.461-5.808 10.461-11.826v-143.378c0-6.319 1.529-12.28 4.237-17.535-15.76 4.758-27.237 19.39-27.237 36.702v124.583c0 6.694 5.72 12.053 12.539 11.454zm-4.054 209.277h-11.52c-68.815-.2-124.8-36.185-124.965-105v-35.6c.165-12.822-4.827-24.876-13.893-33.941l-48.033-48.033c-3.626-3.626-5.623-8.448-5.623-13.577s1.997-9.95 5.623-13.577l4.241-4.24c-13.015 2.527-24.984 8.859-34.568 18.442l-5.398 5.397c-3.626 3.626-5.623 8.448-5.623 13.577s1.997 9.951 5.623 13.577l48.033 48.033c9.066 9.065 14.059 21.119 13.619 33.941v15.6c.44 68.815 56.425 124.8 125.24 125.4h11.52c28.992-.6 55.707-10.538 76.918-27.186-12.903 4.525-26.766 6.986-41.194 7.187zm-139.946-209.277c5.995-.526 10.461-5.808 10.461-11.826v-143.378c0-6.319 1.529-12.28 4.237-17.535-15.76 4.758-27.237 19.39-27.237 36.702v124.583c0 6.694 5.72 12.053 12.539 11.454z" fill="#3f97a4"/><path d="m250.378 407.115c-37.644 0-72.358-22.004-88.441-56.058-.958-2.028-.958-4.378 0-6.406 16.082-34.053 50.797-56.057 88.441-56.057s72.359 22.004 88.441 56.057c.958 2.028.958 4.378 0 6.406-16.083 34.054-50.798 56.058-88.441 56.058z" fill="#ffd993"/><path d="m345.601 341.448c-8.4-17.785-21.587-32.842-38.138-43.543-17.01-10.998-36.75-16.812-57.085-16.812s-40.075 5.813-57.085 16.812c-16.55 10.701-29.738 25.758-38.138 43.543-1.915 4.056-1.915 8.756 0 12.812 8.399 17.785 21.587 32.842 38.138 43.543 17.01 10.998 36.75 16.811 57.085 16.811s40.075-5.813 57.085-16.811c16.55-10.701 29.738-25.758 38.138-43.543 1.915-4.056 1.915-8.756 0-12.812zm-95.223 58.166c-36.078 0-67.211-21.167-81.659-51.76 14.448-30.593 45.582-51.76 81.659-51.76s67.211 21.167 81.659 51.76c-14.448 30.593-45.582 51.76-81.659 51.76z" fill="#ffb52d"/><path d="m332.037 347.854c-11.29 23.905-32.767 42.055-58.83 48.848-1.65-.43-3.361-.906-5.123-1.425-47.282-13.946-47.282-80.901.001-94.846 1.762-.52 3.473-.995 5.123-1.425 26.062 6.793 47.54 24.943 58.829 48.848z" fill="#f5f0eb"/><path d="m280.378 347.854c0 16.569-13.431 30-30 30s-30-13.431-30-30 13.431-30 30-30 30 13.432 30 30z" fill="#0a4499"/><path d="m259.378 319.756c8.284 0 15 6.716 15 15s-6.716 15-15 15-15-6.716-15-15 6.716-15 15-15z" fill="#2476ed"/><path d="m112.878 234.756c0 5.523-4.477 10-10 10s-10-4.477-10-10 4.477-10 10-10 10 4.477 10 10zm15 15c-5.523 0-10 4.477-10 10s4.477 10 10 10 10-4.477 10-10-4.477-10-10-10zm25 25c-5.523 0-10 4.477-10 10s4.477 10 10 10 10-4.477 10-10-4.477-10-10-10zm235-40c0 5.523 4.477 10 10 10s10-4.477 10-10-4.477-10-10-10-10 4.477-10 10zm-25 25c0 5.523 4.477 10 10 10s10-4.477 10-10-4.477-10-10-10-10 4.477-10 10zm-25 25c0 5.523 4.477 10 10 10s10-4.477 10-10-4.477-10-10-10-10 4.477-10 10zm-94.571-227.929c3.905 3.905 10.237 3.905 14.142 0s3.905-10.237 0-14.142-10.237-3.905-14.142 0-3.906 10.236 0 14.142zm0 36c3.905 3.905 10.237 3.905 14.142 0s3.905-10.237 0-14.142-10.237-3.905-14.142 0-3.906 10.236 0 14.142zm0 36c3.905 3.905 10.237 3.905 14.142 0s3.905-10.237 0-14.142-10.237-3.905-14.142 0-3.906 10.236 0 14.142zm0 36c3.905 3.905 10.237 3.905 14.142 0s3.905-10.237 0-14.142-10.237-3.905-14.142 0-3.906 10.236 0 14.142zm0 36c3.905 3.905 10.237 3.905 14.142 0s3.905-10.237 0-14.142-10.237-3.905-14.142 0-3.906 10.236 0 14.142zm0 36c3.905 3.905 10.237 3.905 14.142 0s3.905-10.237 0-14.142-10.237-3.905-14.142 0-3.906 10.236 0 14.142zm-66-134c3.905 3.905 10.237 3.905 14.142 0s3.905-10.237 0-14.142-10.237-3.905-14.142 0-3.906 10.236 0 14.142zm0 36c3.905 3.905 10.237 3.905 14.142 0s3.905-10.237 0-14.142-10.237-3.905-14.142 0-3.906 10.236 0 14.142zm0 36c3.905 3.905 10.237 3.905 14.142 0s3.905-10.237 0-14.142-10.237-3.905-14.142 0-3.906 10.236 0 14.142zm0 36c3.905 3.905 10.237 3.905 14.142 0s3.905-10.237 0-14.142-10.237-3.905-14.142 0-3.906 10.236 0 14.142zm0 36c3.905 3.905 10.237 3.905 14.142 0s3.905-10.237 0-14.142-10.237-3.905-14.142 0-3.906 10.236 0 14.142zm150-144c3.905 3.905 10.237 3.905 14.142 0s3.905-10.237 0-14.142-10.237-3.905-14.142 0-3.906 10.236 0 14.142zm0 36c3.905 3.905 10.237 3.905 14.142 0s3.905-10.237 0-14.142-10.237-3.905-14.142 0-3.906 10.236 0 14.142zm0 36c3.905 3.905 10.237 3.905 14.142 0s3.905-10.237 0-14.142-10.237-3.905-14.142 0-3.906 10.236 0 14.142zm0 36c3.905 3.905 10.237 3.905 14.142 0s3.905-10.237 0-14.142-10.237-3.905-14.142 0-3.906 10.236 0 14.142zm0 36c3.905 3.905 10.237 3.905 14.142 0s3.905-10.237 0-14.142-10.237-3.905-14.142 0-3.906 10.236 0 14.142zm-77.329-227.871c21.208 0 38.4 17.192 38.4 38.4v27.763c6.771-10.897 18.849-18.152 32.621-18.152 21.196 0 38.378 17.183 38.378 38.378v108.4s20.213-8.596 30.737-8.596c14.74 0 29.483 5.625 40.729 16.87l5.398 5.398c3.749 3.749 3.749 9.827 0 13.576l-48.033 48.033c-10.802 10.802-16.871 25.453-16.83 40.729v15.601c-.04 63.623-115.24 115.4-115.24 115.4h-11.52s-115.2-51.777-115.24-115.4v-15.601c.04-15.276-6.029-29.927-16.831-40.729l-48.033-48.033c-3.749-3.749-3.749-9.827 0-13.576l5.398-5.398c11.247-11.247 25.988-16.871 40.729-16.871 9.801 0 28.737 7.458 28.737 7.458v-107.261c0-21.208 17.192-38.4 38.4-38.4h.021c15.208 0 28.352 8.837 34.579 21.655v-31.245c0-21.208 17.192-38.4 38.4-38.4m-.445-18.955c-29.121 0-53.241 21.826-56.864 49.977-9.237-2.636-19.159-2.946-28.952-.692-26.035 5.993-44.14 29.706-44.14 56.421v80.792s-6.662-.55-9.737-.55c-20.513 0-39.8 7.988-54.305 22.494l-5.398 5.398c-11.229 11.229-11.229 29.5 0 40.729l48.033 48.033c7.253 7.253 11.247 16.896 11.407 27.153v15.601c-.16 35.9 13.82 69.651 39.205 95.035s59.136 39.365 95.035 39.365h11.52c35.9 0 69.65-13.98 95.035-39.365s39.365-59.136 39.205-95.035v-15.601c.16-10.257 4.154-19.9 11.407-27.153l48.033-48.033c11.229-11.229 11.229-29.5 0-40.729l-5.398-5.398c-14.505-14.505-33.791-22.494-54.305-22.494-3.731 0-11.737.801-11.737.801v-80.95c0-28.544-23.158-54.983-51.568-57.741-6.768-.657-13.4-.147-19.681 1.407-3.846-27.905-27.849-49.465-56.795-49.465z" fill="#badfe4"/></g></svg>