<svg id="Layer_1" enable-background="new 0 0 512.006 512.006" height="512" viewBox="0 0 512.006 512.006" width="512" xmlns="http://www.w3.org/2000/svg" xmlns:xlink="http://www.w3.org/1999/xlink"><linearGradient id="SVGID_1_" gradientUnits="userSpaceOnUse" x1="0" x2="512.006" y1="256.003" y2="256.003"><stop offset="0" stop-color="#00f2fe"/><stop offset=".0208" stop-color="#03effe"/><stop offset=".2931" stop-color="#24d2fe"/><stop offset=".5538" stop-color="#3cbdfe"/><stop offset=".7956" stop-color="#4ab0fe"/><stop offset="1" stop-color="#4facfe"/></linearGradient><path d="m502.131 509.248c-9.523 5.591-21.779 2.408-27.374-7.118l-90.35-153.842-31.595 61.817c-3.316 6.488-9.9 10.66-17.185 10.888-7.282.233-14.115-3.525-17.83-9.794l-14.593-24.626-26.893 46.45c-3.708 6.404-10.424 9.982-17.327 9.982-3.401 0-6.847-.867-10.002-2.694-9.56-5.534-12.822-17.771-7.288-27.329l44-76c3.558-6.146 10.106-9.943 17.207-9.979h.102c7.063 0 13.604 3.725 17.206 9.804l13.5 22.782 26.679-52.198-53.081-90.382-163.97 284.969c-3.699 6.43-10.432 10.028-17.354 10.028-3.384 0-6.813-.858-9.956-2.668-9.574-5.509-12.869-17.735-7.36-27.31l61.533-106.94-30.184-48.423-102.755 175.444c-3.722 6.354-10.408 9.896-17.276 9.896-3.434 0-6.912-.885-10.089-2.745-9.531-5.582-12.732-17.834-7.15-27.365l119.48-204c3.539-6.043 9.98-9.794 16.982-9.891 7.03-.056 13.545 3.477 17.248 9.418l36.369 58.345 96.517-167.739c3.568-6.202 10.179-10.025 17.335-10.025h.917c7.092 0 13.654 3.756 17.246 9.872l184.409 314c5.594 9.523 2.407 21.779-7.118 27.373zm-440.637-274.246h137.509c11.046 0 20-8.954 20-20s-8.954-20-20-20h-137.509c-12.051 0-21.491-9.894-21.491-22.524 0-12.944 9.421-23.476 21-23.476 10.986 0 19.916-8.862 19.999-19.849.004-.509.095-12.55.095-20.612 0-12.687 12.313-20.539 23.72-20.539 5.059 0 12.036 1.077 16.55 6.209 5.129 5.83 13.169 8.168 20.624 5.989 7.454-2.177 12.975-8.472 14.159-16.146 3.877-25.113 25.531-44.052 50.369-44.052 28.389 0 51.484 22.981 51.484 51.229v14.771c0 11.046 8.954 20 20 20s20-8.954 20-20v-14.771c0-50.304-41.04-91.229-91.484-91.229-34.838 0-66.139 20.639-81.314 51.002-6.352-1.978-13.204-3.002-20.388-3.002-35.135 0-63.72 27.158-63.72 60.539 0 1.227-.002 2.558-.006 3.933-23.888 8.608-41.088 32.256-41.088 60.004 0 16.566 6.25 32.16 17.598 43.908 11.596 12.004 27.184 18.616 43.893 18.616z" fill="url(#SVGID_1_)"/></svg>